<svg xmlns="http://www.w3.org/2000/svg" viewBox="0 0 1070.32 528.53"><defs><style>.cls-1{fill:#6e825f;}</style></defs><g id="Vrstva_2" data-name="Vrstva 2"><g id="Vrstva_1-2" data-name="Vrstva 1"><path class="cls-1" d="M209.81,206.94a89.88,89.88,0,0,0-12.73-8,143.37,143.37,0,0,0-13.82-6.41c-4.74-1.9-9.55-3.74-14.42-5.35S159,184,154.07,182.59c-9.88-2.85-20-5.41-30.07-7.66s-20.31-4.28-30.61-5.94L92,168.75l-.27,1.19a371.87,371.87,0,0,0-7.86,55.24A289.75,289.75,0,0,0,85.33,281,234.3,234.3,0,0,0,99.15,335.6c.4,1.13.81,2.2,1.29,3.32l1.42,3.27,1.42,3.27.74,1.66.82,1.61L108,355.2l3.45,6.36a212.7,212.7,0,0,0,16.06,24.35,228.48,228.48,0,0,0,42.39,42.23,289.23,289.23,0,0,0,52.76,32,360.56,360.56,0,0,0,59.12,21.74c10.23,2.85,20.52,5.22,31,7.24,5.21,1,10.5,1.9,15.78,2.68,2.64.41,5.28.77,8,1.07,1.35.17,2.64.29,4,.47s2.64.3,4.13.36l1.69.12,1.49-.83c.81-.48,1.42-.84,2.17-1.25l2-1.25c1.35-.83,2.64-1.72,4-2.55q4-2.59,7.73-5.35c5-3.62,9.95-7.42,14.62-11.35s9.35-8,13.75-12.17,8.74-8.5,12.87-12.89a269.66,269.66,0,0,0,41.51-58,237.47,237.47,0,0,0,23-65.58,252.53,252.53,0,0,0,3.25-68.54,302.71,302.71,0,0,0-5.21-34c-1.29-5.58-2.51-11.23-4.13-16.75l-1.16-4.16-.54-2.08L461.2,195l-2.57-8.25c-.41-1.37-.88-2.74-1.35-4.1l-1.43-4.1c-1-2.73-1.83-5.46-3-8.14l-3.18-8.07-.81-2-.88-2-1.7-4-1.69-4c-.61-1.31-1.15-2.68-1.76-4l-3.72-7.9-1.83-3.92-2-3.92-4-7.79c-.68-1.3-1.36-2.55-2-3.86l-2.1-3.86-4.27-7.66-4.47-7.54-2.24-3.8-1.15-1.9-1.15-1.85-4.67-7.42c-1.56-2.5-3.12-5-4.74-7.43l-4.95-7.3-2.43-3.68c-.82-1.25-1.7-2.44-2.58-3.63-13.47-19.3-28.1-38-43.48-56.25L345.46,0l-6,6.41c-1,1.07-1.89,2.08-2.84,3.15l-2.78,3.09c-1.82,2.08-3.59,4.16-5.35,6.24-3.52,4.22-7,8.43-10.36,12.71-6.7,8.55-13.2,17.23-19.37,26.08a542.21,542.21,0,0,0-33.86,54.76,450.9,450.9,0,0,0-26.28,58c-3.59,9.92-6.77,20-9.55,30.18s-5,20.43-6.7,30.82A287.09,287.09,0,0,0,219,262.84a246,246,0,0,0,.54,31.54l.34,3.92.2,2,.28,2,1,7.84,1.36,7.84c.13.65.2,1.3.33,2l.41,2,.88,3.86c.27,1.31.54,2.61.88,3.86l1,3.86,1,3.86c.21.66.34,1.31.54,1.9l.61,1.9,2.44,7.61,2.78,7.54.68,1.9c.27.65.54,1.25.74,1.84l1.56,3.69,1.56,3.68c.54,1.25,1.15,2.43,1.76,3.68,1.22,2.44,2.3,4.87,3.59,7.31l3.86,7.12.95,1.79,1.08,1.72,2.1,3.5,2.1,3.51c.34.59.74,1.13,1.08,1.72l1.15,1.72,4.61,6.83,4.94,6.66c.81,1.07,1.63,2.25,2.51,3.32l2.64,3.21,2.64,3.21c.88,1.07,1.69,2.14,2.64,3.21,3.73,4.15,7.32,8.37,11.24,12.29a324.14,324.14,0,0,0,24.59,22.93l10.77-9.68-1.09-.89-1-.84-2-1.66-4.06-3.21c-2.71-2.14-5.48-4.16-8.33-6.17-5.62-4-11.31-7.9-17.2-11.65a368.31,368.31,0,0,0-36.57-20.55,328.88,328.88,0,0,0-39.42-16.33q-10.16-3.48-20.72-6.24c-7-1.84-14.09-3.38-21.27-4.63a238.76,238.76,0,0,0-43.81-3.8c-7.39.05-14.77.53-22.08,1.3s-14.56,2-21.74,3.51l-5.35,1.24c-1.76.42-3.52.95-5.28,1.37l-2.65.71-2.64.78c-1.76.53-3.52,1-5.21,1.6l-5.15,1.78-1.29.42-1.28.47-2.51.95c-3.38,1.25-6.7,2.74-10,4.1a230.16,230.16,0,0,0-37,20.79L0,417.69l2.91,4.57.61.95.61.89,1.15,1.73c.82,1.12,1.56,2.25,2.37,3.38,1.63,2.26,3.32,4.46,5,6.59q5.19,6.51,10.77,12.65a254.8,254.8,0,0,0,24.32,23.23,242.13,242.13,0,0,0,58.65,36.47,234.57,234.57,0,0,0,68.87,18.36,252.06,252.06,0,0,0,36,1.36A275.2,275.2,0,0,0,247,524.43a337.28,337.28,0,0,0,34.74-7.55l8.54-2.43,4.13-1.25,4.13-1.19c5.48-1.6,11-3.15,16.59-4.63s11.11-3,16.73-4.4,11.17-2.85,16.8-4.15l8.39-2,8.47-1.95c5.62-1.31,11.24-2.56,16.93-3.81q33.93-7.4,68.13-13.42c22.82-4,45.78-7.66,68.81-10.69l8.6-1.19,8.67-1.07,8.67-1.07c2.91-.35,5.75-.71,8.67-1l17.33-1.9,4.34-.47,4.33-.42,8.67-.83c11.58-1.19,23.16-2,34.81-2.85,2.91-.24,5.83-.36,8.74-.54l8.73-.53c5.83-.36,11.65-.71,17.48-.95l17.47-.71c2.91-.12,5.82-.18,8.74-.24l8.73-.18,8.74-.18,4.33-.12h4.41l17.47-.06c5.82-.06,11.65.12,17.47.18s11.65.18,17.47.36l17.48.65,8.73.36,8.74.53,17.41,1.07c2.91.12,5.82.48,8.73.71l8.67.78,8.67.77,4.33.36c1.43.11,2.92.29,4.34.47l17.34,2c2.91.36,5.75.59,8.66,1L885,463l17.27,2.37q17.28,2.6,34.34,5.82c11.38,2.14,22.76,4.52,34.07,7.07s22.55,5.35,33.73,8.32q33.52,9,66,20.67-32.1-12.48-65.49-22c-11.11-3.2-22.28-6.23-33.59-9s-22.62-5.34-34-7.66-22.82-4.51-34.34-6.41l-17.27-2.74L877,458.08c-2.91-.42-5.75-.77-8.67-1.13l-17.4-2.26c-1.42-.18-2.91-.41-4.33-.53l-4.34-.48-8.74-.89-8.73-.89c-2.91-.3-5.83-.65-8.74-.83l-17.47-1.37-8.74-.65-8.73-.48-17.54-.95c-2.92-.17-5.83-.17-8.81-.29l-8.8-.24c-5.83-.18-11.72-.42-17.54-.42l-17.61-.18-4.4-.05-4.41.05-8.8.12-8.8.12c-2.92.06-5.9.06-8.81.18l-17.54.54c-5.89.11-11.72.47-17.54.71l-8.8.41c-2.92.18-5.83.24-8.81.48-11.71.77-23.36,1.43-35.08,2.49l-8.74.72-4.4.35-4.4.42-17.47,1.66c-2.92.24-5.83.6-8.74.95l-8.74.95-8.73,1-8.67,1.07c-23.23,2.85-46.32,6.24-69.42,10.1s-46,8.14-68.81,12.89c-5.69,1.19-11.37,2.38-17.06,3.68l-8.54,1.9-8.53,2c-5.69,1.31-11.31,2.68-17,4s-11.31,2.79-16.93,4.28-11.24,3-16.86,4.57l-4.2,1.19-4.2,1.25-8.2,2.31a313.93,313.93,0,0,1-33.32,7,268.79,268.79,0,0,1-33.93,3A249.34,249.34,0,0,1,177,515.34a222.38,222.38,0,0,1-64.47-17.58A228,228,0,0,1,57.43,463a242.58,242.58,0,0,1-22.89-22.16c-3.52-3.92-6.91-7.9-10.09-12-1.63-2-3.18-4.09-4.67-6.23-.75-1.07-1.49-2.08-2.17-3.15l-1-1.55-.47-.77-.48-.71-1.89,7.84A224.73,224.73,0,0,1,48.42,405c3.12-1.31,6.17-2.68,9.28-3.81l2.37-.89,1.15-.47,1.22-.42,4.74-1.6c1.56-.54,3.25-1,4.81-1.49l2.44-.71c.81-.24,1.62-.42,2.44-.65,1.62-.42,3.25-.89,4.87-1.25l5-1.13a193.78,193.78,0,0,1,20.11-3.15c6.77-.71,13.55-1.06,20.39-1.12a222.44,222.44,0,0,1,40.7,3.68c6.7,1.19,13.41,2.67,20,4.39s13.07,3.75,19.5,5.94A311.55,311.55,0,0,1,244.82,418a363.89,363.89,0,0,1,35,19.78q8.43,5.36,16.45,11.23l7.93,5.88,3.86,3,1.89,1.54.89.78.81.71,10.77-9.68A319.31,319.31,0,0,1,299,429.33c-3.79-3.74-7.18-7.78-10.7-11.7-.88-.95-1.69-2-2.5-3l-2.51-3-2.5-3c-.82-1-1.56-2.08-2.37-3.15l-4.68-6.29-4.33-6.48-1.09-1.6c-.33-.54-.74-1.07-1-1.61l-2-3.32-2-3.33-1-1.66-1-1.67-3.66-6.77c-1.15-2.25-2.23-4.57-3.38-6.89-.54-1.13-1.15-2.25-1.63-3.44l-1.49-3.51-1.49-3.5a19.17,19.17,0,0,1-.74-1.78l-.68-1.78-2.64-7.13-2.3-7.19-.55-1.78a16.48,16.48,0,0,1-.47-1.84l-.95-3.63-1-3.62c-.27-1.25-.54-2.43-.81-3.68l-.81-3.69-.41-1.84c-.13-.59-.2-1.24-.34-1.84l-1.28-7.42-.95-7.43-.27-1.84-.14-1.84-.34-3.74a234.73,234.73,0,0,1-.54-30,280.69,280.69,0,0,1,3.12-30,296.14,296.14,0,0,1,6.36-29.64c2.64-9.8,5.69-19.55,9.15-29.17A441.22,441.22,0,0,1,278.48,118,541.15,541.15,0,0,1,311.4,64.45q9-13,18.89-25.54c3.25-4.16,6.64-8.32,10-12.42,1.69-2,3.45-4,5.14-6.06l2.64-3c.88-.95,1.76-2,2.64-2.85l-11.64-.24c15.23,17.82,29.66,36.18,43,55.13.81,1.18,1.69,2.31,2.51,3.56l2.44,3.56,4.87,7.19c1.63,2.38,3.18,4.81,4.74,7.25l4.61,7.24,1.15,1.84L403.5,102l2.24,3.68,4.4,7.37,4.2,7.48,2.1,3.74c.67,1.25,1.42,2.49,2,3.74l3.93,7.55,2,3.8,1.83,3.8,3.66,7.66c.61,1.25,1.15,2.56,1.76,3.86l1.69,3.86,1.69,3.86.88,2,.82,2,3.11,7.83c1.09,2.62,2,5.23,2.91,7.9l1.43,4c.47,1.3.94,2.61,1.35,4l2.57,8,.61,2,.55,2,1.15,4c1.56,5.35,2.77,10.75,4.06,16.16a301.9,301.9,0,0,1,5.22,32.73,240.81,240.81,0,0,1-2.51,65.81,229.24,229.24,0,0,1-21.47,63,254.94,254.94,0,0,1-39.35,56.13c-4,4.28-8.06,8.5-12.25,12.53s-8.61,8-13.14,11.89-9.21,7.54-13.95,11q-3.56,2.67-7.32,5.17c-1.22.83-2.5,1.66-3.72,2.44-.61.41-1.22.77-1.9,1.18s-1.29.78-1.83,1.13l3.18-.71c-1.15-.06-2.5-.18-3.72-.3s-2.57-.23-3.86-.41c-2.57-.3-5.15-.6-7.65-.95-5.15-.72-10.23-1.55-15.31-2.44-10.16-1.84-20.25-4.1-30.2-6.77-5-1.31-10-2.73-14.84-4.22s-9.75-3.15-14.62-4.87c-9.62-3.44-19.1-7.25-28.31-11.46a279.29,279.29,0,0,1-51.68-30.41,224.32,224.32,0,0,1-41.72-40.39,209.75,209.75,0,0,1-16-23.47l-3.45-6.11-3.19-6.24-.81-1.55-.74-1.6-1.42-3.21L106.46,337c-.47-1.06-.88-2.13-1.35-3.2a226.41,226.41,0,0,1-14.56-53.34A299.89,299.89,0,0,1,88,225.36a389.23,389.23,0,0,1,6.64-55l-1.62,1c10.22,1.49,20.45,3.33,30.54,5.41s20.18,4.39,30.14,7.07c4.94,1.36,9.88,2.79,14.76,4.33s9.69,3.27,14.49,5.05,9.42,3.86,14,6.12A77.34,77.34,0,0,1,209.81,206.94Z"/><path class="cls-1" d="M475.7,212.92c5.22-1.54,10.43-3.09,15.65-4.51l7.85-2.2,7.86-2.14c10.5-2.73,21-5.34,31.56-7.78l7.92-1.78,7.93-1.67c2.64-.59,5.28-1.06,8-1.6l4-.77,2-.36,2-.35,8-1.37c2.64-.48,5.35-.83,8-1.25l4-.59,4-.54,8-1-6.36-3.92c.2.95.34,2,.54,3l.47,3.15c.28,2.08.55,4.22.82,6.36.47,4.21.88,8.49,1.22,12.71.61,8.49.88,17,.88,25.54s-.34,17-1,25.48c-.14,2.14-.34,4.22-.54,6.36l-.34,3.14-.34,3.15-.34,3.15-.41,3.15-.4,3.15-.48,3.14c-1.28,8.38-3,16.76-5.08,25s-4.53,16.4-7.38,24.47a203.75,203.75,0,0,1-10,23.64A216.84,216.84,0,0,1,561,378.29c-1.22,1.78-2.37,3.62-3.66,5.4L553.52,389c-2.64,3.5-5.35,6.95-8.2,10.27a208,208,0,0,1-18.49,19.25,229.47,229.47,0,0,1-21.19,17,263.76,263.76,0,0,1-23.5,14.68,299.45,299.45,0,0,1-52.35,22.27l-6.91,2.2c-2.31.71-4.68,1.3-7,2-4.6,1.42-9.34,2.55-14.08,3.74-1.16.3-2.38.59-3.53.89l-3.59.77-7.17,1.61c-1.22.29-2.38.53-3.59.77l-3.59.71-7.25,1.49,7.38-.6,3.73-.35c1.22-.12,2.43-.18,3.65-.36l7.39-.89,3.65-.48c1.22-.17,2.44-.35,3.66-.59,4.88-.77,9.82-1.49,14.63-2.5,2.44-.47,4.87-1,7.25-1.48l7.24-1.72a286.48,286.48,0,0,0,55.74-19.6A265.49,265.49,0,0,0,513,443.92a231.94,231.94,0,0,0,23.23-17.23l5.42-4.75c1.76-1.6,3.45-3.26,5.21-4.93s3.39-3.32,5-5.05l2.44-2.55c.82-.89,1.56-1.78,2.37-2.61a198.46,198.46,0,0,0,17.2-22,227.45,227.45,0,0,0,14-23.76,229.76,229.76,0,0,0,10.7-24.95,247,247,0,0,0,7.65-25.72c2.1-8.67,3.72-17.4,4.94-26.13l.48-3.27.4-3.27.41-3.26.34-3.27.27-3.27.2-3.32c.14-2.2.27-4.4.41-6.59.41-8.8.54-17.59.13-26.38-.13-4.39-.4-8.79-.74-13.18s-.81-8.74-1.29-13.13-1.15-8.73-1.89-13.07c-.34-2.2-.75-4.33-1.22-6.53l-.68-3.27c-.27-1.13-.47-2.14-.74-3.33l-1.22-4.81-5.15.89-8.2,1.43-4.06.71-4.06.83c-2.71.6-5.42,1.07-8.13,1.73l-8.06,1.84c-10.63,2.67-21.26,5.46-31.63,8.73s-20.72,6.65-30.88,10.33C495.61,204.66,485.52,208.59,475.7,212.92Z"/><path class="cls-1" d="M584.26,384c4.34.36,8.67.83,12.87,1.55s8.47,1.6,12.6,2.61,8.26,2.14,12.32,3.39,8.06,2.61,12,4.1c7.93,2.91,15.65,6.17,23.23,9.68,3.79,1.78,7.52,3.56,11.18,5.46,1.82.95,3.65,1.9,5.48,2.91l2.71,1.49c.88.47,1.83,1,2.57,1.48l-1.89-6.35-6.1,8.91L668,423.57l-1.56,2.2-1.62,2.14c-2.24,2.85-4.41,5.7-6.78,8.43l-3.45,4.16-3.66,4-1.83,2c-.61.65-1.28,1.31-1.89,2l-3.79,3.92c-1.29,1.31-2.65,2.55-3.93,3.8s-2.58,2.55-4,3.74l-4.06,3.69c-.68.59-1.36,1.18-2.1,1.78l-2.1,1.78c-2.78,2.38-5.76,4.57-8.6,6.83l-4.47,3.21-2.24,1.6-2.3,1.55c-1.56,1-3,2.07-4.67,3l-4.74,2.92A212.38,212.38,0,0,1,537.06,511c-7.52,1.6-15.17,3-22.82,3.92s-15.51,1.54-23.3,1.84-15.64.29-23.5,0-15.71-.83-23.57-1.67a404,404,0,0,1-46.8-7.72c-3.86-.89-7.72-1.78-11.58-2.73s-7.65-2-11.51-3.09c-7.65-2.14-15.24-4.45-22.69-7.13,3.39,1.9,7,3.63,10.5,5.29s7.18,3.21,10.84,4.75,7.38,3,11.1,4.34,7.52,2.67,11.31,3.92a335.65,335.65,0,0,0,47,11.58c8.06,1.37,16.19,2.44,24.32,3.15s16.39,1.13,24.65,1.13a247.87,247.87,0,0,0,24.79-1.13,228.93,228.93,0,0,0,24.58-3.62l3-.6c1-.18,2-.47,3-.71l3-.71c1-.24,2-.48,3-.78l6-1.6,5.89-1.78a235.43,235.43,0,0,0,23-8.79,210.43,210.43,0,0,0,21.47-11.29l5.08-3.15c1.69-1.07,3.32-2.19,4.94-3.32l2.44-1.67,2.37-1.78c1.56-1.19,3.19-2.31,4.74-3.56A214.67,214.67,0,0,0,646,468.65c1.42-1.3,2.71-2.73,4.06-4.09s2.71-2.74,4-4.16l3.79-4.28c.61-.71,1.29-1.42,1.9-2.14l1.83-2.19,3.59-4.4,3.45-4.51c2.3-3,4.4-6.06,6.57-9.15.54-.77,1.08-1.55,1.56-2.32l1.49-2.37,3-4.7c2-3.14,3.72-6.35,5.62-9.56l2.44-4.16L685,408.37c-1.08-.54-2-1-3-1.49l-2.91-1.42c-2-.9-3.93-1.79-6-2.62-4-1.72-8-3.32-12.06-4.87s-8.19-3-12.32-4.33-8.33-2.56-12.6-3.69a200.69,200.69,0,0,0-25.8-5.17c-2.17-.29-4.34-.53-6.57-.71s-4.4-.3-6.57-.41C593,383.66,588.6,383.66,584.26,384Z"/></g></g></svg>